<svg width="100" height="100" viewBox="0 0 100 100" fill="none" xmlns="http://www.w3.org/2000/svg">
<g clip-path="url(#clip0_4029_171)">
<path d="M74.3751 0C70.7692 0 67.6422 0.665674 64.7593 1.34011C69.8113 3.35464 72.9383 5.82465 74.6192 6.94578C78.4692 10.0815 80.629 13.2259 84.479 18.3849C85.1927 19.506 86.3947 21.0738 87.1177 23.5351C87.8408 25.7773 87.8408 27.5729 87.8408 29.3685C87.8408 31.8385 87.5966 33.853 87.3525 35.8676C87.1177 37.4442 87.1177 38.1186 86.883 38.5653C86.883 38.793 86.883 39.012 86.6388 39.4587C86.6388 40.5798 86.6388 41.0353 86.883 41.9287C86.883 42.8221 87.1177 43.7243 87.1177 45.2921C87.3619 48.2088 87.3619 50.2234 86.883 52.6846V53.5868C86.3947 55.6013 85.9158 57.6246 84.7138 59.4114C84.958 59.8669 85.1927 60.0858 85.4369 60.5325C86.6388 58.9647 87.5966 57.3969 88.5545 55.6101C91.4467 50.6701 93.1276 46.4132 94.3295 43.2776C96.4893 37.4442 97.6913 33.1786 98.4143 30.0429C100.095 23.3161 100.339 20.1804 99.6163 16.5893C99.6163 15.4682 99.1374 13.4449 97.9354 11.4303C95.2873 6.94578 91.2025 4.93124 88.3197 3.58238C86.3947 2.68897 81.3427 0.218971 74.3751 0ZM22.2962 0.989752C19.5261 0.937197 16.1456 1.22624 12.3519 2.90794C11.1499 3.36341 7.54402 4.93124 4.66119 8.51362C2.73617 10.7559 1.29945 14.1193 0.57639 17.9294C-0.146665 21.2928 -0.390814 25.3394 1.0553 32.9596C2.01311 38.3376 2.98032 41.9287 4.90533 49.3212C5.14948 50.2234 6.58621 54.2612 9.71319 63.2303L9.94795 63.677C10.4362 65.2448 11.873 68.6082 14.9999 71.9716C17.1597 74.2139 19.0847 75.5628 20.775 75.5628H21.2445C24.3715 75.5628 26.5407 73.3205 28.4563 71.5249C28.4563 71.2972 33.0294 66.147 34.7103 64.3514C34.4661 64.1237 33.9966 64.1237 33.7525 63.8959C30.8696 62.3281 28.7005 59.8669 27.0196 57.1691C24.1367 52.2379 24.3715 47.3066 24.8504 44.8366L25.0946 41.0353C24.1367 34.9742 24.3809 29.1495 25.5829 23.3161C26.5407 18.3849 27.7426 13.4536 32.0622 8.29465C33.5083 6.49908 35.1892 4.93124 36.87 3.81011C33.0294 2.24227 28.9446 1.34011 24.8504 1.12114C24.071 1.05982 23.2165 1.00727 22.2962 0.989752ZM52.4956 2.90794C51.2936 2.90794 50.0916 2.90794 48.8897 3.13567C44.0818 4.02908 39.5181 6.49908 35.9122 10.7559C32.3063 15.0215 31.3485 19.0505 30.3907 23.7628C29.9024 25.5584 29.9024 27.1262 29.6583 28.9218C31.1044 27.8006 33.0294 26.4518 35.9122 25.7773C37.5931 25.3306 41.922 23.9905 45.5279 26.0051C46.7299 26.6795 48.4108 28.0284 50.0916 31.8385C53.6975 41.2543 50.101 50.8978 49.6221 51.7912C49.378 52.6846 48.8991 53.359 48.6549 53.8057C48.176 54.9269 47.6971 55.829 47.2182 57.6246C46.974 59.1924 46.7299 60.5413 46.7299 62.1091C47.453 62.1091 48.176 62.3281 48.8897 62.7748C50.0916 63.8959 50.3358 65.4725 50.5799 66.1382C51.0588 69.7293 51.0588 74.2139 51.0588 78.6984C51.0588 82.2896 51.0588 85.653 51.2936 87.8952C51.7819 93.0542 53.4628 96.6366 55.8667 98.4322C57.5476 99.781 59.7073 99.7723 60.9093 100H61.3976C65.0035 100 70.7692 97.7577 72.9289 94.6221C74.1309 92.8265 74.6192 91.2586 75.0981 89.0164C75.3423 87.6675 75.3329 87.0018 75.577 85.653C75.577 84.9785 75.8212 83.8574 75.8212 82.5173C75.8212 81.3962 76.0559 80.0473 76.3001 78.4707C76.5442 74.6606 77.2579 70.1848 77.502 67.7148C77.7462 64.7981 79.1829 62.3281 80.3849 60.7603C78.704 60.5325 77.0231 59.1924 76.0653 56.9502C74.6192 54.4802 74.3751 53.8057 74.1309 52.6846C73.8961 51.7912 73.4172 50.6701 71.727 47.3066C68.1211 39.6864 67.6516 37.4442 67.6516 35.6486C67.4074 33.1786 67.1633 29.8239 70.0555 27.5817C74.3751 23.9905 79.906 24.2183 82.7888 25.1117V24.6562C82.3099 22.8694 81.3521 21.5205 80.629 20.6271C77.0231 15.4682 75.0981 12.7792 71.727 10.0902C70.2903 8.96908 66.6844 6.27135 61.3976 4.48454C58.9937 3.81011 56.1015 2.90794 52.4956 2.90794ZM79.0702 29.2021C77.3236 29.0882 75.0981 29.3685 73.1731 30.9451C72.2153 31.8385 72.2153 33.6341 72.4594 35.2019C72.4594 36.323 72.6942 37.8909 76.3001 45.5198C77.9809 49.1022 78.4598 50.2234 78.704 51.1255C78.9481 52.0189 79.1829 52.4656 80.629 54.9269C80.8732 55.3823 81.1079 55.829 81.5868 56.2757C82.0657 55.6013 82.3099 54.4802 82.5446 52.6846L82.7888 52.0189C83.2677 50.0044 83.0329 48.4278 83.0329 45.7388C83.0329 44.3899 82.7888 43.4965 82.7888 42.8221C82.5446 41.701 82.5446 40.8076 82.5446 39.4587C82.0657 38.7843 82.0657 38.5653 82.3099 38.1098C82.3099 37.6631 82.5446 36.9975 82.7888 35.6486C83.0329 33.853 83.2771 32.2852 83.2771 30.4896C82.7888 30.2619 82.554 30.0429 82.0751 29.8239C82.0751 29.8239 80.8074 29.3159 79.0702 29.2021ZM41.4807 30.0867C39.9501 29.9203 38.1941 30.3845 37.1142 30.7174C34.4661 31.3918 32.7946 32.9596 31.5927 33.853C30.8696 34.5275 30.1466 35.2019 29.4235 36.0953C29.4235 37.6631 29.6583 39.2397 29.9024 40.8076V41.0353L29.4235 45.5198C28.9446 47.5344 28.7005 51.3445 31.1044 55.1546C32.3063 57.3969 33.9966 59.1924 36.1564 60.3136C37.6025 61.207 39.5181 61.8814 41.6779 62.3369C41.6779 60.7603 41.922 58.9647 42.1662 57.3969C42.6451 55.1546 43.124 54.0335 43.8471 52.6846C44.0912 52.0189 44.326 51.5722 44.8143 50.8978C45.049 50.2234 48.4108 41.701 45.2838 33.853C44.5701 32.0575 43.8471 30.9363 42.8799 30.4896C42.4667 30.2619 41.9784 30.1393 41.4807 30.0867ZM76.7508 31.3655C77.38 31.3305 77.9809 31.383 78.2251 31.6108C78.9481 32.0575 77.9809 33.1786 77.7368 33.4063C77.502 33.6341 77.0231 34.0808 76.3001 34.3085C75.3423 34.5275 74.6192 33.853 74.3751 33.853C74.1309 33.6253 73.4172 32.9596 73.6614 32.2852C73.8961 31.8385 74.1403 31.8385 75.0981 31.6108C75.4549 31.4969 76.1217 31.3918 76.7508 31.3655ZM40.6168 33.2224C41.4244 33.1698 42.1005 33.4589 42.6451 33.6253C43.3682 33.853 44.0818 34.0808 44.0818 34.5275C44.326 35.2019 43.6123 35.6486 43.3682 35.8676C42.6451 36.542 41.4431 36.5508 41.4431 36.5508C40.2412 36.5508 39.5181 35.8763 39.0392 35.2019C38.7951 34.9742 38.5603 34.5275 38.8045 34.0808C39.0392 33.6341 39.5181 33.4063 39.7623 33.4063C40.0628 33.2925 40.3445 33.2399 40.6168 33.2224ZM84.7138 62.5558C83.5118 64.1237 81.831 66.147 81.5868 68.8359C81.5868 69.2826 81.5868 69.5104 81.3427 69.9571C83.2677 70.4038 84.958 70.4038 86.6388 70.1848C90.4889 69.7293 93.1275 67.9338 93.6065 67.4871C95.2873 66.3659 97.4565 64.1237 96.9682 63.2303C96.7334 62.7836 96.0104 63.0025 92.1603 63.2303C91.2025 63.2303 88.3197 63.9047 86.3947 63.458H85.9158C85.4369 63.2303 84.958 63.0025 84.7138 62.5558ZM42.8799 67.0404C42.401 67.7148 41.6873 68.1615 41.2084 68.6082C39.2834 69.7293 36.87 70.6315 34.4661 71.0782C32.3063 71.7526 31.1044 71.7526 31.1044 72.4271C30.8602 73.3205 33.2642 74.4416 34.4661 74.8883C38.5603 76.4562 42.6451 75.5628 43.3682 75.335C43.8471 75.1073 45.049 74.6606 46.251 73.9862C46.251 71.5249 46.0162 69.2826 45.7721 67.4871V67.2593H45.5279C44.8049 67.2593 43.8471 67.2681 42.8799 67.0404Z" fill="black"/>
</g>
<defs>
<clipPath id="clip0_4029_171">
<rect width="100" height="100" fill="white"/>
</clipPath>
</defs>
</svg>
