<?xml version="1.0" encoding="UTF-8"?>
<svg id="Capa_2" data-name="Capa 2" xmlns="http://www.w3.org/2000/svg" viewBox="0 0 48 20.54">
  <defs>
    <style>
      .cls-1 {
        fill: #1d1d1b;
        stroke-width: 0px;
      }
    </style>
  </defs>
  <g id="Capa_1-2" data-name="Capa 1">
    <g>
      <path class="cls-1" d="M1.07,11.92l.8-.93c.8.78,1.89,1.3,3.07,1.3,1.44,0,2.27-.69,2.27-1.65,0-1.12-.82-1.44-1.87-1.89l-1.52-.67c-1.04-.42-2.26-1.15-2.26-2.71s1.44-2.79,3.44-2.79c1.31,0,2.46.53,3.23,1.3l-.7.86c-.69-.61-1.49-.98-2.58-.98-1.22,0-2.03.58-2.03,1.52,0,1.01.98,1.38,1.87,1.73l1.47.66c1.3.51,2.32,1.25,2.32,2.8,0,1.66-1.41,2.99-3.71,2.99-1.54,0-2.87-.61-3.81-1.55Z"/>
      <path class="cls-1" d="M10.64,8.03c0-3.38,1.97-5.44,4.71-5.44,1.26,0,2.26.61,2.88,1.28l-.77.85c-.54-.58-1.23-.94-2.11-.94-2,0-3.31,1.62-3.31,4.23s1.31,4.29,3.31,4.29c.96,0,1.7-.42,2.35-1.15l.77.82c-.82.96-1.86,1.52-3.25,1.52-2.59,0-4.58-2.02-4.58-5.44Z"/>
      <path class="cls-1" d="M20.78,2.78h3.28c2.13,0,3.68.77,3.68,2.96s-1.55,3.11-3.68,3.11h-1.92v4.43h-1.36V2.78ZM23.87,7.76c1.63,0,2.53-.67,2.53-2.02s-.9-1.87-2.53-1.87h-1.73v3.89h1.73ZM24.85,7.77l3.2,5.51h-1.52l-2.74-4.8,1.06-.7Z"/>
      <path class="cls-1" d="M30.06,9.31V2.78h1.36v6.56c0,2.16.94,2.95,2.19,2.95s2.23-.78,2.23-2.95V2.78h1.3v6.53c0,3.01-1.47,4.16-3.52,4.16s-3.55-1.15-3.55-4.16Z"/>
      <path class="cls-1" d="M39.55,2.78h1.63l1.47,4.48.51,1.7h.06l.5-1.7,1.49-4.48h1.63v10.5h-1.28v-5.25c0-1.02.16-2.82.22-3.71h-.05l-.59,2.05-1.5,4.13h-.96l-1.47-4.13-.61-2.05h-.03c.1.9.22,2.69.22,3.71v5.25h-1.25V2.78Z"/>
    </g>
  </g>
</svg>