<svg width="101" height="101" viewBox="0 0 101 101" fill="none" xmlns="http://www.w3.org/2000/svg">
<path d="M3.03036 58.9847L4.69702 54.4569C6.36369 58.2544 8.63452 60.7861 11.0929 60.7861C14.0929 60.7861 15.822 57.4268 15.822 52.753C15.822 47.3002 14.1137 45.7422 11.9262 43.5514L8.75952 40.2895C6.59286 38.2447 4.05119 34.6906 4.05119 27.0957C4.05119 19.5008 7.05119 13.5125 11.2179 13.5125C13.947 13.5125 16.3429 16.0928 17.947 19.8416L16.4887 24.0285C15.0512 21.0587 13.3845 19.2573 11.1137 19.2573C8.57202 19.2573 6.88452 22.0811 6.88452 26.6575C6.88452 31.5748 8.92619 33.3761 10.7804 35.0801L13.8429 38.2934C16.5512 40.7763 18.6762 44.3791 18.6762 51.9253C18.6762 60.0071 15.7387 66.4823 10.947 66.4823C7.73869 66.4823 4.96785 63.5124 3.00952 58.936L3.03036 58.9847Z" fill="white"/>
<path d="M22.9678 40.0459C22.9678 23.5902 27.0719 13.561 32.7803 13.561C35.4053 13.561 37.4886 16.5308 38.7803 19.7928L37.1761 23.931C36.0511 21.1073 34.6136 19.3546 32.7803 19.3546C28.6136 19.3546 25.8844 27.2417 25.8844 39.9486C25.8844 52.6555 28.6136 60.8346 32.7803 60.8346C34.7803 60.8346 36.3219 58.7899 37.6761 55.2358L39.2803 59.228C37.5719 63.9018 35.4053 66.6282 32.5094 66.6282C27.1136 66.6282 22.9678 56.7938 22.9678 40.1433V40.0459Z" fill="white"/>
<path d="M44.0928 14.4861H50.9261C55.3636 14.4861 58.5928 18.2349 58.5928 28.897C58.5928 39.5591 55.3636 44.0382 50.9261 44.0382H46.9261V65.6058H44.0928V14.4861ZM50.5303 38.7315C53.9261 38.7315 55.8011 35.4695 55.8011 28.897C55.8011 22.3244 53.9261 19.7928 50.5303 19.7928H46.9261V38.7315H50.5303ZM52.5719 38.7801L59.2386 65.6058H56.0719L50.3636 42.2368L52.5719 38.8288V38.7801Z" fill="white"/>
<path d="M63.4263 46.2777V14.4861H66.2596V46.4238C66.2596 56.9398 68.2179 60.786 70.8221 60.786C73.4263 60.786 75.4679 56.9885 75.4679 46.4238V14.4861H78.1763V46.2777C78.1763 60.932 75.1138 66.5309 70.8429 66.5309C66.5721 66.5309 63.4471 60.932 63.4471 46.2777H63.4263Z" fill="white"/>
<path d="M83.1971 14.4861H86.5929L89.6554 36.2972L90.7179 44.5737H90.8429L91.8846 36.2972L94.9888 14.4861H98.3846V65.6058H95.7179V40.046C95.7179 35.08 96.0513 26.3167 96.1763 21.9837H96.0721L94.8429 31.9642L91.7179 52.0713H89.7179L86.6554 31.9642L85.3846 21.9837H85.3221C85.5304 26.3653 85.7804 35.08 85.7804 40.046V65.6058H83.1763V14.4861H83.1971Z" fill="white"/>
</svg>
