<svg width="150" height="150" viewBox="0 0 150 150" fill="none" xmlns="http://www.w3.org/2000/svg">
<path d="M3.34375 87.0497L5.84375 80.258C8.34375 85.9542 11.75 89.7517 15.4375 89.7517C19.9375 89.7517 22.5312 84.7128 22.5312 77.702C22.5312 69.5229 19.9688 67.186 16.6875 63.8997L11.9375 59.0068C8.6875 55.9396 4.875 50.6086 4.875 39.2162C4.875 27.8238 9.375 18.8413 15.625 18.8413C19.7188 18.8413 23.3125 22.7118 25.7187 28.335L23.5312 34.6154C21.375 30.1607 18.875 27.4586 15.4688 27.4586C11.6562 27.4586 9.125 31.6943 9.125 38.5589C9.125 45.9348 12.1875 48.6368 14.9688 51.1928L19.5625 56.0127C23.625 59.7371 26.8125 65.1412 26.8125 76.4606C26.8125 88.5833 22.4062 98.296 15.2188 98.296C10.4062 98.296 6.25 93.8413 3.3125 86.9766L3.34375 87.0497Z" fill="#1D1D1B"/>
<path d="M33.25 58.6417C33.25 33.9581 39.4062 18.9143 47.9688 18.9143C51.9062 18.9143 55.0312 23.369 56.9687 28.2619L54.5625 34.4693C52.875 30.2337 50.7188 27.6047 47.9688 27.6047C41.7188 27.6047 37.625 39.4352 37.625 58.4956C37.625 77.556 41.7188 89.8247 47.9688 89.8247C50.9688 89.8247 53.2813 86.7575 55.3125 81.4265L57.7187 87.4148C55.1562 94.4255 51.9062 98.5151 47.5625 98.5151C39.4688 98.5151 33.25 83.7634 33.25 58.7877V58.6417Z" fill="#1D1D1B"/>
<path d="M64.9375 20.3018H75.1875C81.8437 20.3018 86.6875 25.925 86.6875 41.9182C86.6875 57.9114 81.8437 64.63 75.1875 64.63H69.1875V96.9815H64.9375V20.3018ZM74.5938 56.6699C79.6875 56.6699 82.5 51.777 82.5 41.9182C82.5 32.0594 79.6875 28.2619 74.5938 28.2619H69.1875V56.6699H74.5938ZM77.6562 56.7429L87.6562 96.9815H82.9062L74.3438 61.9279L77.6562 56.816V56.7429Z" fill="#1D1D1B"/>
<path d="M93.9375 67.9893V20.3018H98.1875V68.2084C98.1875 83.9825 101.125 89.7517 105.031 89.7517C108.938 89.7517 112 84.0555 112 68.2084V20.3018H116.062V67.9893C116.062 89.9708 111.469 98.369 105.062 98.369C98.6562 98.369 93.9688 89.9708 93.9688 67.9893H93.9375Z" fill="#1D1D1B"/>
<path d="M123.594 20.3018H128.687L133.281 53.0185L134.875 65.4333H135.063L136.625 53.0185L141.281 20.3018H146.375V96.9815H142.375V58.6417C142.375 51.1928 142.875 38.0477 143.062 31.5482H142.906L141.062 46.519L136.375 76.6796H133.375L128.781 46.519L126.875 31.5482H126.781C127.094 38.1207 127.469 51.1928 127.469 58.6417V96.9815H123.562V20.3018H123.594Z" fill="#1D1D1B"/>
</svg>
